ffmpeg started on 2016-12-04 at 23:31:24
Report written to "Output/x264/results/ffmpeg/crowd_run_2160p50veryfast3000k.log"
Command line:
Tools/ffmpeg/ffmpeg -benchmark -y -i Input/y4m/crowd_run_2160p50.y4m -c:v libx264 -preset veryfast -b:v 3000k -an Output/x264/encoded/crowd_run_2160p50veryfast3000k.mkv
ffmpeg version N-82227-gdb23fde Copyright (c) 2000-2016 the FFmpeg developers
  built with gcc 5.4.0 (Ubuntu 5.4.0-6ubuntu1~16.04.2) 20160609
  configuration: --prefix=/home/jaroslav/ffmpeg_build --pkg-config-flags=--static --extra-cflags=-I/home/jaroslav/ffmpeg_build/include --extra-ldflags=-L/home/jaroslav/ffmpeg_build/lib --bindir=/home/jaroslav/bin --enable-gpl --enable-libass --enable-libfdk-aac --enable-libfreetype --enable-libmp3lame --enable-libopus --enable-libtheora --enable-libvorbis --enable-libvpx --enable-libx264 --enable-libx265 --enable-nvenc --enable-libmfx --enable-libxvid --enable-libgsm --enable-libopencore-amrnb --enable-version3 --enable-nonfree
  libavutil      55. 35.100 / 55. 35.100
  libavcodec     57. 66.101 / 57. 66.101
  libavformat    57. 57.100 / 57. 57.100
  libavdevice    57.  2.100 / 57.  2.100
  libavfilter     6. 66.100 /  6. 66.100
  libswscale      4.  3.100 /  4.  3.100
  libswresample   2.  4.100 /  2.  4.100
  libpostproc    54.  2.100 / 54.  2.100
Input #0, yuv4mpegpipe, from 'Input/y4m/crowd_run_2160p50.y4m':
  Duration: 00:00:10.00, start: 0.000000, bitrate: 4976642 kb/s
    Stream #0:0: Video: rawvideo (I420 / 0x30323449), yuv420p(progressive), 3840x2160, SAR 1:1 DAR 16:9, 50 fps, 50 tbr, 50 tbn, 50 tbc
[libx264 @ 0x3e671c0] using SAR=1/1
[libx264 @ 0x3e671c0] using cpu capabilities: MMX2 SSE2Fast SSSE3 SSE4.2 AVX FMA3 AVX2 LZCNT BMI2
[libx264 @ 0x3e671c0] profile High, level 5.2
[libx264 @ 0x3e671c0] 264 - core 148 - H.264/MPEG-4 AVC codec - Copyleft 2003-2016 - http://www.videolan.org/x264.html - options: cabac=1 ref=1 deblock=1:0:0 analyse=0x3:0x113 me=hex subme=2 psy=1 psy_rd=1.00:0.00 mixed_ref=0 me_range=16 chroma_me=1 trellis=0 8x8dct=1 cqm=0 deadzone=21,11 fast_pskip=1 chroma_qp_offset=0 threads=6 lookahead_threads=2 sliced_threads=0 nr=0 decimate=1 interlaced=0 bluray_compat=0 constrained_intra=0 bframes=3 b_pyramid=2 b_adapt=1 b_bias=0 direct=1 weightb=1 open_gop=0 weightp=1 keyint=250 keyint_min=25 scenecut=40 intra_refresh=0 rc_lookahead=10 rc=abr mbtree=1 bitrate=3000 ratetol=1.0 qcomp=0.60 qpmin=0 qpmax=69 qpstep=4 ip_ratio=1.40 aq=1:1.00
Output #0, matroska, to 'Output/x264/encoded/crowd_run_2160p50veryfast3000k.mkv':
  Metadata:
    encoder         : Lavf57.57.100
    Stream #0:0: Video: h264 (libx264) (H264 / 0x34363248), yuv420p, 3840x2160 [SAR 1:1 DAR 16:9], q=-1--1, 3000 kb/s, 50 fps, 1k tbn, 50 tbc
    Metadata:
      encoder         : Lavc57.66.101 libx264
    Side data:
      cpb: bitrate max/min/avg: 0/0/3000000 buffer size: 0 vbv_delay: -1
Stream mapping:
  Stream #0:0 -> #0:0 (rawvideo (native) -> h264 (libx264))
Press [q] to stop, [?] for help
frame=   17 fps=0.0 q=0.0 size=       0kB time=00:00:00.00 bitrate=N/A speed=   0x    frame=   23 fps= 20 q=45.0 size=       1kB time=00:00:00.00 bitrate=5864.0kbits/s speed=0.000877x    frame=   33 fps= 20 q=57.0 size=       1kB time=00:00:00.20 bitrate=  29.2kbits/s speed=0.122x    frame=   38 fps= 18 q=58.0 size=       1kB time=00:00:00.30 bitrate=  19.5kbits/s speed=0.139x    frame=   46 fps= 17 q=59.0 size=       1kB time=00:00:00.46 bitrate=  12.7kbits/s speed=0.17x    frame=   61 fps= 19 q=61.0 size=       1kB time=00:00:00.76 bitrate=   7.7kbits/s speed=0.237x    frame=   76 fps= 20 q=61.0 size=       1kB time=00:00:01.06 bitrate=   5.5kbits/s speed=0.283x    frame=   90 fps= 21 q=62.0 size=       1kB time=00:00:01.34 bitrate=   4.4kbits/s speed=0.315x    frame=  105 fps= 22 q=62.0 size=       1kB time=00:00:01.64 bitrate=   3.6kbits/s speed=0.344x    frame=  120 fps= 23 q=62.0 size=       1kB time=00:00:01.94 bitrate=   3.0kbits/s speed=0.366x    frame=  135 fps= 23 q=62.0 size=       1kB time=00:00:02.24 bitrate=   2.6kbits/s speed=0.386x    frame=  150 fps= 24 q=62.0 size=       1kB time=00:00:02.54 bitrate=   2.3kbits/s speed=0.401x    frame=  159 fps= 23 q=62.0 size=       1kB time=00:00:02.72 bitrate=   2.2kbits/s speed=0.39x    frame=  165 fps= 22 q=62.0 size=       1kB time=00:00:02.84 bitrate=   2.1kbits/s speed=0.378x    frame=  174 fps= 21 q=62.0 size=       1kB time=00:00:03.02 bitrate=   1.9kbits/s speed=0.37x    frame=  189 fps= 22 q=63.0 size=       1kB time=00:00:03.32 bitrate=   1.8kbits/s speed=0.382x    frame=  200 fps= 22 q=63.0 size=       1kB time=00:00:03.54 bitrate=   1.7kbits/s speed=0.382x    frame=  210 fps= 21 q=63.0 size=       1kB time=00:00:03.74 bitrate=   1.6kbits/s speed=0.383x    frame=  225 fps= 22 q=63.0 size=       1kB time=00:00:04.04 bitrate=   1.5kbits/s speed=0.393x    frame=  240 fps= 22 q=63.0 size=       1kB time=00:00:04.34 bitrate=   1.4kbits/s speed=0.401x    frame=  246 fps= 22 q=63.0 size=       1kB time=00:00:04.46 bitrate=   1.3kbits/s speed=0.393x    frame=  261 fps= 22 q=63.0 size=       1kB time=00:00:04.76 bitrate=   1.2kbits/s speed=0.401x    frame=  272 fps= 22 q=63.0 size=    2055kB time=00:00:04.98 bitrate=3380.2kbits/s speed=0.401x    frame=  278 fps= 22 q=63.0 size=    2055kB time=00:00:05.10 bitrate=3300.7kbits/s speed=0.395x    frame=  283 fps= 21 q=63.0 size=    2055kB time=00:00:05.20 bitrate=3237.2kbits/s speed=0.384x    frame=  292 fps= 21 q=63.0 size=    2055kB time=00:00:05.38 bitrate=3129.0kbits/s speed=0.382x    frame=  298 fps= 20 q=63.0 size=    2055kB time=00:00:05.50 bitrate=3060.7kbits/s speed=0.377x    frame=  310 fps= 20 q=63.0 size=    2055kB time=00:00:05.74 bitrate=2932.7kbits/s speed=0.378x    frame=  317 fps= 20 q=63.0 size=    2055kB time=00:00:05.88 bitrate=2862.9kbits/s speed=0.374x    frame=  325 fps= 20 q=63.0 size=    2055kB time=00:00:06.04 bitrate=2787.1kbits/s speed=0.368x    frame=  336 fps= 20 q=63.0 size=    2055kB time=00:00:06.26 bitrate=2689.2kbits/s speed=0.37x    frame=  339 fps= 19 q=63.0 size=    2055kB time=00:00:06.32 bitrate=2663.6kbits/s speed=0.362x    frame=  345 fps= 19 q=63.0 size=    2055kB time=00:00:06.44 bitrate=2614.0kbits/s speed=0.354x    frame=  351 fps= 19 q=63.0 size=    2055kB time=00:00:06.56 bitrate=2566.2kbits/s speed=0.351x    frame=  356 fps= 19 q=63.0 size=    2055kB time=00:00:06.66 bitrate=2527.7kbits/s speed=0.347x    frame=  364 fps= 18 q=63.0 size=    2055kB time=00:00:06.82 bitrate=2468.4kbits/s speed=0.344x    frame=  370 fps= 18 q=63.0 size=    2055kB time=00:00:06.94 bitrate=2425.7kbits/s speed=0.341x    frame=  372 fps= 18 q=63.0 size=    2055kB time=00:00:06.98 bitrate=2411.8kbits/s speed=0.33x    frame=  377 fps= 17 q=63.0 size=    2055kB time=00:00:07.08 bitrate=2377.8kbits/s speed=0.327x    frame=  386 fps= 17 q=63.0 size=    2055kB time=00:00:07.26 bitrate=2318.8kbits/s speed=0.326x    frame=  392 fps= 17 q=63.0 size=    2055kB time=00:00:07.38 bitrate=2281.1kbits/s speed=0.319x    frame=  396 fps= 17 q=63.0 size=    2055kB time=00:00:07.46 bitrate=2256.7kbits/s speed=0.311x    frame=  408 fps= 16 q=63.0 size=    2055kB time=00:00:07.70 bitrate=2186.3kbits/s speed=0.311x    frame=  414 fps= 16 q=63.0 size=    2055kB time=00:00:07.82 bitrate=2152.8kbits/s speed=0.309x    frame=  423 fps= 16 q=63.0 size=    2055kB time=00:00:08.00 bitrate=2104.3kbits/s speed=0.309x    frame=  424 fps= 16 q=63.0 size=    2055kB time=00:00:08.02 bitrate=2099.1kbits/s speed=0.303x    frame=  426 fps= 16 q=63.0 size=    2055kB time=00:00:08.06 bitrate=2088.7kbits/s speed=0.297x    frame=  429 fps= 16 q=63.0 size=    2055kB time=00:00:08.12 bitrate=2073.3kbits/s speed=0.294x    frame=  431 fps= 15 q=63.0 size=    2055kB time=00:00:08.16 bitrate=2063.1kbits/s speed=0.286x    frame=  434 fps= 15 q=63.0 size=    2055kB time=00:00:08.22 bitrate=2048.0kbits/s speed=0.283x    frame=  435 fps= 15 q=63.0 size=    2055kB time=00:00:08.24 bitrate=2043.1kbits/s speed=0.277x    frame=  436 fps= 14 q=63.0 size=    2055kB time=00:00:08.26 bitrate=2038.1kbits/s speed=0.271x    frame=  440 fps= 14 q=63.0 size=    2055kB time=00:00:08.34 bitrate=2018.6kbits/s speed=0.269x    frame=  447 fps= 14 q=63.0 size=    2055kB time=00:00:08.48 bitrate=1985.2kbits/s speed=0.269x    frame=  451 fps= 14 q=63.0 size=    2055kB time=00:00:08.56 bitrate=1966.7kbits/s speed=0.267x    frame=  457 fps= 14 q=63.0 size=    2055kB time=00:00:08.68 bitrate=1939.5kbits/s speed=0.266x    frame=  461 fps= 14 q=63.0 size=    2055kB time=00:00:08.76 bitrate=1921.8kbits/s speed=0.262x    frame=  463 fps= 14 q=64.0 size=    2055kB time=00:00:08.80 bitrate=1913.1kbits/s speed=0.258x    frame=  466 fps= 13 q=64.0 size=    2055kB time=00:00:08.86 bitrate=1900.1kbits/s speed=0.252x    frame=  468 fps= 13 q=64.0 size=    2055kB time=00:00:08.90 bitrate=1891.6kbits/s speed=0.247x    frame=  471 fps= 13 q=64.0 size=    2055kB time=00:00:08.96 bitrate=1878.9kbits/s speed=0.243x    frame=  473 fps= 13 q=64.0 size=    2055kB time=00:00:09.00 bitrate=1870.6kbits/s speed=0.239x    frame=  475 fps= 12 q=64.0 size=    2055kB time=00:00:09.04 bitrate=1862.3kbits/s speed=0.234x    frame=  477 fps= 12 q=64.0 size=    2055kB time=00:00:09.08 bitrate=1854.1kbits/s speed=0.231x    frame=  479 fps= 12 q=64.0 size=    2055kB time=00:00:09.12 bitrate=1845.9kbits/s speed=0.228x    frame=  483 fps= 12 q=64.0 size=    2055kB time=00:00:09.20 bitrate=1829.9kbits/s speed=0.224x    frame=  485 fps= 12 q=64.0 size=    2055kB time=00:00:09.24 bitrate=1822.0kbits/s speed=0.22x    frame=  488 fps= 11 q=64.0 size=    2055kB time=00:00:09.30 bitrate=1810.2kbits/s speed=0.216x    frame=  492 fps= 11 q=64.0 size=    2055kB time=00:00:09.38 bitrate=1794.8kbits/s speed=0.214x    frame=  500 fps= 11 q=64.0 size=    2055kB time=00:00:09.54 bitrate=1764.7kbits/s speed=0.215x    frame=  500 fps= 11 q=-1.0 Lsize=    3931kB time=00:00:09.94 bitrate=3239.2kbits/s speed=0.222x    
video:3926kB audio:0kB subtitle:0kB other streams:0kB global headers:0kB muxing overhead: 0.110107%
bench: utime=54.812s
bench: maxrss=1081948kB
[libx264 @ 0x3e671c0] frame I:2     Avg QP:45.67  size: 93225
[libx264 @ 0x3e671c0] frame P:126   Avg QP:50.89  size: 17632
[libx264 @ 0x3e671c0] frame B:372   Avg QP:50.91  size:  4333
[libx264 @ 0x3e671c0] consecutive B-frames:  0.8%  0.0%  0.0% 99.2%
[libx264 @ 0x3e671c0] mb I  I16..4: 53.4% 45.3%  1.2%
[libx264 @ 0x3e671c0] mb P  I16..4:  8.3%  2.8%  0.0%  P16..4:  9.5%  1.7%  0.4%  0.0%  0.0%    skip:77.4%
[libx264 @ 0x3e671c0] mb B  I16..4:  0.0%  0.0%  0.0%  B16..8:  4.5%  0.1%  0.0%  direct: 1.2%  skip:94.2%  L0:46.4% L1:53.5% BI: 0.1%
[libx264 @ 0x3e671c0] final ratefactor: 54.69
[libx264 @ 0x3e671c0] 8x8 transform intra:27.5% inter:69.4%
[libx264 @ 0x3e671c0] coded y,uvDC,uvAC intra: 8.7% 54.2% 1.2% inter: 0.2% 2.2% 0.0%
[libx264 @ 0x3e671c0] i16 v,h,dc,p: 70% 19% 10%  1%
[libx264 @ 0x3e671c0] i8 v,h,dc,ddl,ddr,vr,hd,vl,hu: 11% 11% 56%  4%  3%  4%  4%  4%  4%
[libx264 @ 0x3e671c0] i4 v,h,dc,ddl,ddr,vr,hd,vl,hu: 22% 17% 15% 10%  8%  8%  7%  7%  6%
[libx264 @ 0x3e671c0] i8c dc,h,v,p: 97%  1%  1%  0%
[libx264 @ 0x3e671c0] Weighted P-Frames: Y:1.6% UV:0.0%
[libx264 @ 0x3e671c0] kb/s:3215.95
